<svg width="125" height="125" viewBox="0 0 125 125" fill="none" xmlns="http://www.w3.org/2000/svg">
<path d="M60.5777 82.118L60.3583 82.7761L53.2323 104.154C53.0782 104.617 53.2792 105.122 53.7081 105.352C53.8594 105.433 54.0212 105.471 54.18 105.471C54.4814 105.471 54.7757 105.336 54.9706 105.086L55.365 105.393L54.9706 105.086L86.7056 64.3686L86.7059 64.3683C86.9412 64.067 86.9838 63.6588 86.8159 63.3158L86.8155 63.3151C86.6485 62.9723 86.2991 62.754 85.917 62.754H67.71H66.993L67.2408 62.0812L74.8798 41.3452L74.8799 41.345C75.0504 40.8829 74.8581 40.3649 74.4267 40.1254C73.9937 39.8855 73.4521 39.998 73.1527 40.3856L73.152 40.3866L42.014 80.5046L42.0139 80.5047C41.7802 80.8056 41.7379 81.2142 41.9059 81.5579L60.5777 82.118ZM60.5777 82.118H59.884M60.5777 82.118H59.884M59.884 82.118H42.804M59.884 82.118H42.804M42.804 82.118C42.4222 82.118 42.0743 81.9009 41.9061 81.5582L42.804 82.118ZM45.473 79.3114L44.847 80.118H45.868H61.966C62.2877 80.118 62.5893 80.272 62.777 80.5328C62.9645 80.7937 63.016 81.1296 62.9145 81.4355L57.8907 96.5049L58.7594 96.9704L83.2404 65.5614L83.8697 64.754H82.846H65.559C65.2324 64.754 64.9257 64.5939 64.7393 64.3262C64.5523 64.0578 64.508 63.7142 64.621 63.4083L64.6212 63.4078L69.6522 49.7508L68.788 49.2714L45.473 79.3114Z" fill="#FFE712" stroke="#FFE712"/>
<path d="M59.3619 94.1204C59.7157 93.3987 60.0614 92.6829 60.4599 91.9855C60.5548 91.8194 60.5936 91.8644 60.5026 92.0465C60.264 92.5237 59.8804 92.9132 59.6486 93.3945C59.2953 94.1283 58.9661 94.8978 58.8191 95.7063C58.7932 95.8486 58.7653 96.0446 58.8618 95.7795C59.3284 94.4962 60.1612 93.3797 60.8746 92.2295C62.0936 90.2644 63.2768 88.3647 64.9614 86.7643C66.2007 85.5869 63.3691 89.7934 62.4605 91.2414C62.2624 91.5572 61.7137 92.5213 61.9604 92.2417C63.2651 90.763 64.2687 88.8224 65.3274 87.1668C66.2948 85.6539 67.2627 84.1413 68.2308 82.6287C68.475 82.2471 68.9062 81.6666 68.2857 82.3542C67.296 83.4509 66.5019 84.7122 65.5774 85.8615C65.4151 86.0634 65.1037 86.6889 65.0529 86.4349C64.9945 86.1429 65.8672 84.9557 65.9617 84.7941C67.2547 82.5821 68.6914 80.4816 70.0912 78.3407C70.2224 78.1399 70.5555 77.5032 70.4632 77.7246C70.2003 78.3557 69.6906 78.9568 69.3165 79.5179C68.0855 81.3645 66.8649 83.2447 65.4737 84.9771C65.2462 85.2604 64.3051 86.5256 64.8272 85.3979C65.5951 83.7393 68.3731 79.0188 67.328 80.5183C65.9156 82.5449 64.5926 84.6369 63.2779 86.7277C62.8803 87.3599 62.4861 87.9981 62.0702 88.6185C61.7459 89.1023 61.8621 88.6177 61.936 88.3624C62.3844 86.8122 63.154 85.3396 63.8391 83.8852C63.9363 83.6789 64.8173 81.8132 64.5588 82.9581C64.0621 85.1576 62.9863 87.2297 62.241 89.3505C61.9318 90.2302 61.0033 92.869 61.3016 91.9855C61.6896 90.8366 62.123 89.7097 62.4849 88.5514C62.6729 87.9501 63.0827 87.1668 63.0827 86.5203C63.0827 86.3466 62.8894 86.8093 62.8021 86.9594C62.5171 87.4497 62.2267 87.9365 61.936 88.4234C61.6223 88.9486 61.3305 89.4845 61.0271 90.0154C60.9539 90.1436 60.6892 90.5764 60.7648 90.1007C60.9361 89.0242 61.4864 87.9648 61.8811 86.9533C62.1576 86.2449 62.0754 86.6494 61.936 87.1058C61.7765 87.6278 61.6301 88.1848 61.3992 88.6795C61.2031 89.0998 61.7094 88.4056 61.8323 88.3014C61.8941 88.2489 62.448 87.6495 62.5215 87.9598C62.6694 88.5842 62.4518 89.2084 62.2654 89.7897C62.0064 90.5969 63.1183 88.4506 63.1803 88.3502C63.891 87.1973 64.5684 86.0351 65.242 84.8612C65.6067 84.2256 64.9121 85.6179 64.8394 85.7395C64.6223 86.1027 64.1578 87.1965 64.1074 86.7765C64.0551 86.3407 64.5833 85.627 64.7662 85.2882C65.3916 84.1297 66.0641 82.9976 66.7669 81.8846C68.134 79.7194 69.6729 77.6967 71.2074 75.6508C72.8825 73.4173 68.4714 80.5285 67.3524 83.0862C66.508 85.0163 71.2943 75.7007 70.6889 77.7185C70.427 78.5915 69.901 79.4516 69.4751 80.256C69.2203 80.7372 69.226 80.7537 69.6154 80.2926C70.2913 79.4922 71.01 78.7393 71.7503 77.9991C72.2957 77.4536 71.5969 78.702 71.5246 78.8287C70.7045 80.2638 67.6064 84.1336 68.7431 82.9337C69.149 82.5053 69.4441 81.9755 69.8533 81.543C70.2828 81.0889 69.5166 81.945 69.4263 82.0554C69.1732 82.3647 68.558 83.3081 68.5846 82.9093C68.6165 82.4295 69.0066 81.9105 69.2311 81.5186C69.8695 80.404 70.5087 79.2889 71.1708 78.1882C72.2132 76.4551 73.3448 74.7678 74.5256 73.1255C74.5272 73.1233 75.0096 72.5421 74.9403 72.6376C74.5653 73.1548 74.1726 73.6601 73.7936 74.1747C73.2129 74.9631 72.6037 75.7407 72.0491 76.5474C72.0223 76.5865 71.9353 76.6938 71.9759 76.6694C72.0869 76.6028 72.1612 76.4886 72.2504 76.3949C72.7243 75.8974 73.1698 75.3749 73.6289 74.8639C74.0423 74.4039 74.4638 73.9501 74.8855 73.4976C74.8963 73.4859 75.5057 72.9231 75.5076 72.9364C75.5426 73.1816 74.9786 73.7802 74.8489 73.9612C74.5541 74.3723 74.2677 74.7875 73.9827 75.2055C73.6663 75.6696 73.556 75.8628 73.9766 75.3275C74.3792 74.8151 74.753 74.24 75.2148 73.7782C75.7305 73.2626 74.4006 74.9889 74.0254 75.6142C73.8955 75.8306 73.0197 77.3231 73.6594 76.462C74.0892 75.8835 74.5084 75.2972 74.9281 74.7114C75.0233 74.5787 75.5345 74.1301 75.1843 74.321C74.2789 74.8149 73.5296 75.5697 72.6103 76.0411C71.8347 76.4389 72.4875 75.025 72.6225 74.7968C72.6679 74.7201 73.2133 73.8347 73.0129 74.2357C72.5815 75.0983 72.017 75.8962 71.488 76.6999C70.8243 77.7081 72.0778 75.7389 72.2443 75.5288C72.901 74.7001 73.6141 73.9189 74.2694 73.0889C74.5621 72.7182 74.2777 73.1333 74.0864 73.3024C72.9616 74.2964 71.8507 75.3849 70.8719 76.523C70.7378 76.6789 70.0234 77.491 70.0851 77.4014C70.7031 76.5024 71.4302 75.6479 72.1406 74.8212C72.2499 74.694 73.29 73.3445 73.5618 73.461C73.8232 73.573 72.9457 75.0898 72.8726 75.236C72.5722 75.8367 72.331 76.4714 72.0552 77.0842C71.8639 77.5095 72.8889 76.6723 72.9885 76.5901C73.5537 76.1238 74.0568 75.5827 74.5744 75.0652C75.2528 74.3868 74.5617 75.2578 74.3548 75.5288C73.7299 76.347 73.1137 77.1651 72.5371 78.0174C72.3101 78.353 72.8092 77.7729 72.8665 77.7124C73.7832 76.7439 74.4752 75.4302 75.2209 74.3332C76.3759 72.6343 77.4493 70.8845 78.5269 69.1364C78.8302 68.6443 79.1352 68.1478 79.3809 67.6237C79.4678 67.4382 79.5218 67.1533 79.6736 67.0015C79.8538 66.8214 79.4814 67.4748 79.3565 67.6969C78.7939 68.6969 78.1747 69.666 77.5266 70.6125C76.4358 72.2053 75.1022 73.7579 74.2877 75.5227C73.4981 77.2334 72.0318 78.5657 71.2196 80.2804C70.7484 81.2751 70.3686 82.211 69.5178 82.8727C68.9822 83.2893 68.4244 83.4465 68.1698 84.1536C67.9737 84.6983 67.3422 85.0235 66.9133 85.3613C65.6078 86.3894 64.2857 87.7272 63.4243 89.1553C62.8233 90.1516 61.8831 90.8554 61.1796 91.7598C60.958 92.0448 60.9989 90.2219 61.0698 89.9788C61.1164 89.8189 61.3459 89.5006 61.1125 89.8507C60.8713 90.2125 60.6478 90.6323 60.5148 91.0462C60.434 91.2976 60.2695 91.5519 60.2403 91.8147C60.2131 92.0594 60.1679 91.2028 60.2037 91.0584C60.9245 88.1484 61.8253 85.2682 62.7655 82.4213C62.9278 81.9299 63.1021 81.4501 63.2901 80.9696C63.4651 80.5224 63.2033 81.9291 63.0949 82.3969C63.006 82.7806 62.7655 83.9253 62.7655 83.5315C62.7655 82.6802 63.1806 81.8353 63.4487 81.0428C63.6265 80.5172 63.7633 79.8542 64.0769 79.3837C64.5597 78.6595 63.6845 81.0808 63.4365 81.9151C63.2219 82.6369 62.9851 83.3995 62.9851 84.1597C62.9851 84.5786 63.2237 83.3502 63.4243 82.9825C63.4931 82.8563 63.9639 82.1928 63.9488 82.2566C63.7774 82.9852 63.2865 83.705 62.9851 84.3915C62.7165 85.0033 62.5483 85.4058 62.4361 86.0506C62.4052 86.2286 62.3263 86.7619 62.3263 86.5813C62.3263 85.4449 62.9236 84.2454 63.2779 83.1899C64.2468 80.303 65.2704 77.2815 66.6937 74.5772C66.8404 74.2984 66.3948 76.3187 66.3643 76.4315C65.7422 78.731 64.8123 80.928 64.1928 83.2265C64.0228 83.8572 63.7415 85.0071 64.2538 83.6047C65.1573 81.1314 66.1837 78.699 67.206 76.2729C67.4382 75.7221 67.6822 75.1894 67.9624 74.6626C67.9634 74.6606 68.2843 74.0671 68.2918 74.0771C68.4256 74.2554 67.6353 75.5946 67.5964 75.6752C67.177 76.5428 66.7944 77.4127 66.4436 78.3102C66.1896 78.9598 65.9266 79.6069 65.6872 80.2621C65.5353 80.678 65.4989 80.8373 65.7848 80.2804C67.3319 77.2677 68.8605 74.2571 70.5608 71.3261C71.0392 70.5015 71.481 69.6121 72.043 68.8375C72.1903 68.6345 72.6103 68.0927 72.6103 68.3434C72.6103 68.8845 72.2638 69.559 72.0491 70.033C71.4273 71.4063 70.7122 72.7389 70.0668 74.1015C69.0192 76.3129 68.0226 78.5357 66.895 80.7073C66.1451 82.1515 66.9256 80.4326 67.1755 79.9327C68.09 78.1038 69.178 76.3642 70.2314 74.6138C70.2785 74.5356 70.952 73.5488 70.9512 73.5525C70.8431 74.0621 70.3281 74.5978 70.0485 75.0042C69.2505 76.1639 68.5144 77.3564 67.816 78.5786C67.698 78.7851 66.3997 81.5932 66.1935 81.5674C66.191 81.5671 67.5328 78.657 67.6696 78.3834C67.9583 77.806 68.2441 77.227 68.5358 76.6511C68.5553 76.6125 68.8584 76.1233 68.6089 76.4925C67.6445 77.9199 66.911 79.3638 66.1447 80.8964C65.7686 81.6486 66.6192 79.2801 66.9316 78.4993C67.4668 77.1611 64.3778 83.6677 65.0224 82.3786C65.9171 80.5892 66.8797 78.7477 67.9136 77.0354C68.0228 76.8544 68.8833 75.1384 69.1884 75.1384C69.3475 75.1384 68.2609 77.5828 68.182 77.7551C67.4722 79.305 66.8325 80.9177 66.0715 82.4396C64.9361 84.7105 68.7755 78.1417 70.1461 76.0045C71.0149 74.6497 71.8713 73.2903 72.7689 71.9544C72.8323 71.8601 73.1928 71.1486 73.3666 71.1371C73.4694 71.1302 73.3513 71.3447 73.3179 71.442C73.1648 71.8873 72.9261 72.4258 72.7323 72.8327C71.6209 75.1659 70.2819 77.3839 69.1579 79.7131C69.0407 79.956 68.0712 81.8547 68.8163 80.6158C70.8699 77.2015 76.7264 66.8028 75.0501 70.4173C74.5588 71.4768 73.9991 72.5194 73.4764 73.5647C73.0844 74.3488 74.0323 72.9104 74.0742 72.851C74.9362 71.631 75.7454 70.2305 76.8617 69.2157C77.7832 68.3779 76.5811 70.0905 76.4592 70.2892C75.7846 71.3881 74.8357 72.5363 74.3792 73.7538C74.2661 74.0553 74.7388 73.2195 74.922 72.9547C75.3804 72.2927 75.8425 71.6321 76.3128 70.9785C76.8513 70.23 77.4294 69.3704 78.1365 68.7643C78.5504 68.4096 77.6484 69.3523 77.5937 69.4231C77.3213 69.7756 76.6172 70.8887 76.758 70.4661C77.0057 69.7231 77.8838 68.9189 78.4171 68.3678C78.5136 68.2681 79.3149 67.4754 79.3199 67.4895C79.3941 67.6997 78.8374 68.4161 78.7099 68.5996C78.3803 69.0743 79.0738 68.4434 79.1735 68.3556C79.5598 68.0155 79.951 67.676 80.3324 67.3309C81.0308 66.699 78.212 70.3978 78.5391 69.5146C78.8182 68.7609 80.6175 67.0623 80.0945 67.6725C79.4798 68.3896 78.7992 69.0491 78.2097 69.789C77.9296 70.1407 77.4617 70.5598 77.3619 71.009C77.2737 71.4056 77.1531 71.6726 76.9898 72.0459C76.8871 72.2806 76.8589 72.4261 77.0081 72.0703C77.3109 71.3482 77.6967 70.6227 78.1304 69.972C78.6388 69.2095 79.1099 68.4154 79.5883 67.6359C79.9689 67.0156 80.3876 66.2266 80.9058 65.7084C81.0264 65.5878 81.2712 65.3347 81.4303 65.2692C81.665 65.1726 81.1793 66.1392 81.1498 66.2086C81.0187 66.5164 80.5594 67.3845 80.796 67.1479C81.1172 66.8267 81.378 66.1852 81.6255 65.7938C81.6365 65.7764 82.0025 65.1363 82.0281 65.1533C82.1491 65.234 81.1158 66.978 81.0583 67.0869C80.7616 67.6481 80.514 68.2725 80.1738 68.807C79.992 69.0928 80.1128 68.0374 80.1128 67.8799C80.1128 67.4429 80.271 64.7017 79.7773 66.3062C79.7583 66.3681 79.5187 67.3165 79.509 67.3126C79.4019 67.2698 79.354 66.8433 79.2894 66.727C79.1452 66.4675 79.2345 67.3623 79.2345 67.4285C79.2345 67.519 79.2496 69.0147 79.1491 68.3556C79.0209 67.5156 78.8736 64.9691 78.9051 65.8182C78.9169 66.1374 78.9901 66.552 79.2345 66.7819C79.3767 66.9158 79.3443 65.8011 79.3443 65.6596C79.3443 65.3617 79.1733 64.4155 79.3687 64.1713C79.4044 64.1266 79.7221 64.6379 79.7834 64.6959C79.9125 64.8178 80.0091 64.4153 79.9847 64.3299C79.9035 64.0457 79.4652 64.6197 79.2406 64.8118C78.365 65.5604 77.6257 66.4471 76.8922 67.3309C75.2668 69.2893 70.6582 75.346 72.4578 73.5464C73.4642 72.54 74.352 71.3367 75.1477 70.1611C75.23 70.0396 76.156 68.6934 75.898 68.8009C75.3763 69.0183 74.9154 69.579 74.5256 69.9598C73.7616 70.7063 73.0118 71.4675 72.2565 72.2228C71.9421 72.5372 71.5996 73.0057 71.2196 73.2475C70.828 73.4967 71.6849 72.4441 71.9332 72.052C72.6256 70.9587 73.2913 69.848 73.9888 68.7582C74.0456 68.6695 74.839 67.5815 74.5744 67.8677C73.5716 68.9518 72.7245 70.2206 71.7929 71.3688C71.7036 71.479 70.7866 72.7694 71.0732 71.9788C71.5388 70.6945 72.5513 69.3426 73.4032 68.2946C73.6991 67.9307 74.4362 67.1249 75.0135 67.2211C75.625 67.323 75.2188 69.8254 75.9651 70.2953C76.3112 70.5132 77.1087 70.4909 77.4229 70.2465C77.6833 70.0439 77.8865 69.6399 78.1975 69.5268C79.3601 69.104 78.0526 70.6071 77.8194 70.948C77.6142 71.2478 77.264 71.5894 77.1484 71.9361C77.064 72.1894 77.4923 71.5021 77.5876 71.3932C78.148 70.7528 78.4599 70.0851 78.9051 69.3926C79.0498 69.1675 79.2523 68.9592 78.8319 68.9778C77.9391 69.0172 77.0989 69.443 76.2335 69.6365C75.7528 69.7441 75.4324 69.7814 75.7943 69.1974C76.1615 68.6049 76.6783 68.1769 77.124 67.6603C77.3045 67.4511 77.9157 66.8754 77.3436 67.3797C76.965 67.7133 76.4952 68.0884 76.2701 68.5386" stroke="#FFE712" stroke-linecap="round" stroke-linejoin="round"/>
<path d="M76.2701 68.5386C76.4644 68.5043 78.4985 68.1448 78.5696 67.825C78.6175 67.6093 78.6737 67.4464 78.6855 67.2211C78.695 67.0411 79.1344 66.4988 79.0759 66.3671C78.8752 65.9155 74.2936 69.4078 73.9278 69.667C73.1483 70.2195 72.3915 70.7689 71.6405 71.3566C71.3357 71.5951 72.1492 70.8954 72.1772 70.8687C73.1906 69.9004 74.1921 68.8951 75.0623 67.7945C75.2602 67.5443 75.2896 67.3903 75.0379 67.7335C74.6628 68.245 74.2865 68.7524 73.9034 69.2584C73.3033 70.051 73.6933 69.7909 74.1962 69.2462C75.0033 68.3718 75.9011 67.3804 76.8678 66.6843C77.6586 66.115 77.24 66.4829 76.819 67.0015C76.6868 67.1644 75.3417 68.6589 75.7943 68.6484C76.434 68.6335 79.3971 67.3903 78.0573 66.666C77.29 66.2513 76.0966 66.0592 75.4588 65.4705C74.8943 64.9494 75.6145 65.9815 75.7211 66.172C76.2231 67.0684 76.0501 66.3024 75.7821 65.745C75.6548 65.4802 74.71 63.85 75.4893 63.9517C76.3334 64.0618 77.0754 64.5853 77.9109 64.6898C78.4241 64.7539 78.0089 63.7703 77.8682 63.5491C77.7369 63.3428 78.5264 64.3128 78.6855 64.4763C79.1702 64.9744 79.1092 64.8833 78.6001 64.5251C78.1157 64.1842 79.199 65.1114 79.3443 65.2204C79.7781 65.5458 79.7038 65.4232 79.7834 65.0252C79.7917 64.9839 80.7845 65.4531 80.9302 65.5193C80.9979 65.5501 81.1701 65.6341 81.2047 65.5132C81.217 65.47 81.2108 65.2908 81.2108 65.3119C81.2108 65.9409 79.9434 65.3692 79.6127 65.2936C78.4471 65.0272 76.4587 64.7871 75.5259 65.7084C74.8314 66.3944 74.2927 67.5037 74.0803 68.4593C74.0183 68.7385 74.4065 67.9894 74.5744 67.7579C75.023 67.1391 75.4911 66.5728 76.0322 66.0317C76.111 65.9529 77.1087 64.8093 76.9044 65.5498C76.6036 66.6403 75.7335 67.8482 75.1233 68.807C75.0013 68.9987 75.0878 68.8011 75.1355 68.7094C75.3524 68.2923 75.6725 67.9625 76.0261 67.6603C76.4864 67.2668 77.4588 67.063 77.7828 66.5623C78.2413 65.8537 76.7768 65.5023 76.3311 65.2997C76.0769 65.1842 75.8048 65.0215 75.9163 64.7569C75.9699 64.6294 75.9662 64.3607 75.8309 64.2811C75.6046 64.1479 75.4084 64.5662 75.3185 64.6837C74.0442 66.3487 72.4098 67.7662 70.878 69.1852C68.7871 71.1221 66.6713 73.0328 64.5344 74.9188C63.7748 75.5892 63.0005 76.2464 62.2654 76.9439C61.9944 77.2009 62.6751 76.3177 62.9119 76.0289C63.7971 74.9496 64.7156 73.9039 65.6384 72.8571C66.0579 72.3813 66.4521 71.8261 66.9804 71.4603C67.2755 71.256 67.0952 71.8181 67.0718 71.9117C66.7527 73.1884 66.2042 74.4089 65.6994 75.6203C65.486 76.1326 65.2589 76.6616 65.12 77.2001C65.0093 77.6291 66.3313 76.0264 66.3765 75.9679C67.6558 74.3128 68.854 72.5991 70.0973 70.9175C70.6874 70.1193 71.2669 69.214 71.9637 68.502C73.1457 67.2944 70.2181 71.396 69.3287 72.8327C68.8477 73.6098 68.4504 74.446 67.9441 75.2055C67.5735 75.7613 68.256 74.7796 68.2613 74.7724C69.7807 72.7005 71.1461 70.5016 72.4212 68.2702C72.4523 68.2158 72.5163 68.0529 72.4639 68.0872C72.1599 68.2868 71.8661 68.5836 71.5978 68.8192C70.4465 69.8301 69.435 70.972 68.3284 72.0276C67.9292 72.4083 67.4863 72.9546 66.9865 73.2109C66.6697 73.3734 66.704 72.5638 66.6937 72.4424C66.6196 71.5695 66.5708 70.6942 66.5229 69.8195C66.4995 69.3934 66.5701 68.8977 66.4741 68.4776C66.4642 68.4342 66.3887 68.1582 66.3887 68.3617C66.3887 69.3696 66.3684 70.3797 66.4009 71.3871C66.4355 72.4587 66.5486 73.534 66.8279 74.5711C66.8504 74.6547 67.2205 75.8103 67.017 75.3397C66.2965 73.6736 65.6526 71.9704 64.9004 70.3197C64.7126 69.9075 64.5222 69.5966 64.5222 70.2953C64.5222 72.1243 64.8591 73.9494 65.0712 75.7606C65.2778 77.5244 65.565 79.2967 65.7055 81.0672C65.7451 81.5658 65.8156 82.0871 65.4372 81.3722C63.9901 78.6389 63.3491 75.6478 62.2166 72.7961C62.056 72.392 61.8769 71.6782 61.5212 71.3871C61.4532 71.3315 61.6081 72.84 61.6249 72.9242C61.9005 74.3022 62.175 75.6828 62.4239 77.0659C62.5705 77.8799 62.57 78.7346 62.7655 79.5362C63.0167 80.566 62.8723 79.1805 62.9729 78.786C63.327 77.3968 64.104 76.0415 64.815 74.809C65.4994 73.6228 66.2435 72.4431 67.1572 71.4176C67.325 71.2294 68.6891 69.8675 68.3833 70.9968C68.0832 72.1046 67.235 73.1292 66.6815 74.1198C66.2188 74.9476 65.7392 75.8256 65.4738 76.7426C65.3545 77.1546 65.5641 77.3255 65.9068 77.0049C66.8453 76.1269 67.4607 74.7708 68.1637 73.7111C68.6429 72.9887 69.1721 72.302 69.6642 71.5884C69.7143 71.5157 69.8709 71.3034 69.8289 71.381C69.66 71.6928 69.441 71.9944 69.2494 72.2899C68.0118 74.1987 66.7476 76.0935 65.5347 78.0174C65.2769 78.4265 65.4397 77.4286 65.4494 77.3587C65.5713 76.4782 65.845 75.6312 66.0105 74.7602C66.0569 74.5162 66.1952 73.7838 66.1508 74.0283C66.0207 74.7439 65.5783 75.4461 65.2969 76.1082C65.1896 76.3606 64.1904 79.4583 63.9244 79.4203C63.3667 79.3406 66.2 71.2776 63.3145 77.9198C63.1723 78.2471 63.0804 78.6948 62.8814 78.9933C62.6559 79.3316 62.9381 78.1759 63.0522 77.7856C63.4197 76.5283 64.5923 72.8245 63.9305 73.9551C63.1599 75.2716 62.5515 76.7101 61.997 78.1272C61.7258 78.8201 61.9876 76.7059 62.0214 76.5291C62.1546 75.8311 62.4568 73.7556 62.5398 74.4613C62.647 75.3724 62.2709 76.4185 62.1129 77.3038C61.9411 78.2657 61.7541 79.2212 61.6676 80.195C61.6505 80.3868 61.543 80.9543 61.5578 80.7622C61.6075 80.116 61.8627 79.4346 62.0214 78.8104C62.8467 75.563 63.8482 72.2863 65.12 69.1852C65.509 68.2367 65.8749 67.2697 66.3643 66.3671C66.3871 66.325 66.7302 65.5943 66.8035 65.9524C67.2265 68.0204 65.8069 70.1738 65.0712 72.0032C65.0564 72.04 64.7919 72.7447 64.9309 72.5522C65.6056 71.6179 66.1225 70.5431 66.6815 69.5389C66.7687 69.3823 68.1861 66.796 67.8465 68.1543C67.3488 70.1453 66.3049 72.0741 65.5591 73.9917C65.3747 74.4661 65.4188 74.4364 65.6933 74.0161C66.413 72.9141 67.1736 71.8388 67.9258 70.7589C68.4253 70.0418 68.9127 69.3072 69.4507 68.6179C69.5685 68.467 70.0393 67.8025 69.9875 68.3983C69.8311 70.1962 68.8573 71.9994 68.3223 73.7233C68.3066 73.7739 68.1808 74.2579 68.2796 73.9246C68.588 72.8835 69.4587 71.9451 70.0363 71.0456C70.5321 70.2734 71.0155 69.4973 71.5246 68.7338C71.7867 68.3406 71.7342 68.3573 71.4636 68.7399C70.24 70.4698 68.8254 72.0294 67.6696 73.8209C67.4801 74.1147 67.0769 75.0483 67.0962 74.6992C67.1192 74.2868 67.5067 73.7598 67.7062 73.4183C67.8088 73.2427 68.7518 71.5261 68.4016 72.2472C68.1675 72.7292 67.9221 73.1903 67.6086 73.6257C67.2373 74.1415 67.5796 73.1552 67.633 73.034C68.377 71.3458 68.9519 69.5962 69.6825 67.9043C69.8416 67.5358 69.7632 68.3465 69.7435 68.4288C69.6377 68.8705 69.4613 69.3482 69.2677 69.7585C69.2457 69.8052 69.0769 70.1824 69.1579 69.9171C69.373 69.2133 69.8205 68.5429 70.1339 67.8799C70.4038 67.3086 70.6533 66.7393 70.8414 66.1354C70.9124 65.9074 71.0367 65.841 70.9512 66.1354C70.8043 66.6415 70.5484 67.1058 70.3534 67.5932C70.3089 67.7045 69.9469 68.7526 70.2985 68.2031C70.9307 67.2154 71.5189 66.2053 72.104 65.1899C72.224 64.9817 72.7349 63.8511 73.0129 63.8114C73.0901 63.8004 72.505 65.221 72.4883 65.257C72.0302 66.2441 71.5522 67.2481 71.2074 68.2824C70.8151 69.4594 72.1539 67.97 72.4273 67.7091C72.8523 67.3033 72.1771 68.7694 72.1101 68.8985C71.9185 69.268 72.0969 69.1073 72.2748 68.8985C72.6835 68.4187 73.1009 67.9044 73.4581 67.3858C73.6604 67.0922 74.7927 65.3674 74.1779 66.6355C74.1025 66.7911 73.3862 68.2851 73.7936 67.5444C73.9592 67.2433 74.9641 64.619 74.4036 64.5861C74.2323 64.576 73.9409 64.5372 73.7997 64.6471C73.5532 64.8388 73.5156 65.2258 73.4703 65.5071C73.3505 66.2526 73.2913 67.0036 73.1471 67.7457C72.9134 68.9473 73.253 67.069 73.3301 66.7697C73.4861 66.1636 73.5843 65.5444 73.7448 64.9398C73.7979 64.7402 73.8341 64.1243 73.8546 64.3299C73.9056 64.8394 74.184 66.3425 74.184 65.8304C74.184 65.385 73.7241 64.7782 73.391 64.5007C73.2296 64.3662 73.0861 66.9934 73.0861 67.2516C73.0861 67.4876 73.2447 69.3688 72.8055 68.4105C72.5308 67.8113 72.3673 67.1499 72.0735 66.5623C71.8127 66.0408 72.0202 67.793 72.3175 68.2946C72.7688 69.0562 71.7133 66.6201 71.2684 65.8548C71.2215 65.7741 70.6904 65.0276 70.6767 65.1167C70.6039 65.59 70.8542 66.1289 71.0488 66.544C71.129 66.7152 71.3154 67.3789 71.488 67.4529C71.5782 67.4915 71.3511 66.2723 71.3294 66.1964C71.2225 65.8223 70.7174 64.988 71.5551 65.4766C71.7838 65.61 72.0583 65.7486 72.2321 65.9524C72.6907 66.49 72.3017 65.5724 72.2077 65.3668C72.181 65.3083 71.864 64.6254 71.7442 64.6105C71.6224 64.5952 71.8456 65.6291 71.8783 65.7328C71.995 66.1023 72.3174 66.5719 71.9149 66.0622C71.5336 65.5791 70.1676 64.4446 69.4629 64.8361C69.1769 64.995 69.1393 65.4365 69.1335 65.7206C69.1145 66.6504 69.1247 67.5842 69.1335 68.5142C69.1368 68.8558 69.1159 69.3161 69.2677 69.6365C69.3662 69.8444 69.1486 68.9427 69.1335 68.8924C68.9587 68.3098 68.8303 67.7276 68.6943 67.1357C68.5162 66.3604 68.6856 67.7318 68.7187 67.8921C68.8608 68.5795 69.0221 69.3023 69.2433 69.9659" stroke="#FFE712" stroke-linecap="round" stroke-linejoin="round"/>
<path d="M70.5365 68.7153C70.5365 68.1261 70.5844 67.5143 70.4786 66.9322C70.3528 66.2406 70.4207 68.3374 70.4207 69.0404C70.4207 69.0639 70.429 69.3855 70.4207 69.1981C70.3991 68.7122 70.2343 68.2343 70.2018 67.7433C70.1743 67.3284 70.2062 66.8635 70.1181 66.4559C70.0998 66.3713 70.0238 66.2982 70.0151 66.2242C69.9895 66.0062 69.6848 64.7619 69.7963 64.8176C70.2138 65.0264 71.051 66.1992 70.7554 65.8379C70.223 65.1873 69.5916 64.4702 68.8243 64.0935C68.1479 63.7615 68.9339 66.3467 69.027 66.6168C69.0912 66.8028 69.3135 67.1481 69.3135 67.3442C69.3135 67.4283 69.2282 67.1992 69.188 67.1253C69.0274 66.831 68.8611 66.5422 68.7213 66.237C68.556 65.8765 68.4377 65.4764 68.232 65.1363C68.119 64.9493 68.1959 65.2892 68.1999 65.3101C68.2683 65.6685 68.3773 66.0153 68.4767 66.3658C68.6245 66.8876 68.7664 67.4112 68.9015 67.9364C68.968 68.1948 68.6218 67.482 68.4831 67.2541C68.2499 66.8711 68.1059 66.4675 67.907 66.0697C67.7457 65.7471 67.8437 66.1324 67.8812 66.2756C68.0999 67.1094 68.3383 67.932 68.5024 68.7797C68.5489 69.02 68.7795 69.64 68.6794 69.8901C68.6482 69.9681 68.6019 69.7405 68.5732 69.6616C68.3833 69.1393 68.2376 68.604 68.1033 68.0652C67.8724 67.1384 67.679 66.1941 67.4081 65.2779C67.3813 65.1873 67.2343 64.5684 67.2343 64.9882C67.2343 65.8863 67.3543 66.7824 67.3952 67.6789C67.4139 68.0884 67.4081 68.4986 67.4081 68.9084C67.4081 69.1022 67.2444 68.4798 67.2311 68.4353C67.0208 67.731 66.9026 67.0158 66.7419 66.3014C66.6266 65.7893 66.655 66.3087 66.655 66.5396C66.655 67.2971 66.6207 68.0647 66.7129 68.8183C66.7437 69.0699 66.8252 69.8045 66.8867 69.5586C66.9967 69.1186 66.7022 68.4523 66.6099 68.033C66.4797 67.4413 66.351 66.8475 66.1915 66.2628C66.103 65.9381 66.1315 66.1348 66.169 66.3593C66.333 67.3437 66.669 68.3055 66.9446 69.2625C67.1351 69.9238 67.3213 70.5944 67.5465 71.2451C67.6409 71.5179 67.6292 71.1978 67.6077 71.0809C67.526 70.6377 67.1394 69.5812 67.627 69.2625C68.1053 68.9497 67.9845 70.0452 67.9166 70.2216C67.9115 70.2349 67.7583 70.4028 67.8523 70.3857C68.063 70.3474 68.2039 70.0424 68.3029 69.8804C68.3475 69.8074 68.5368 69.697 68.3383 69.7098C67.9374 69.7357 67.5295 70.0238 67.2053 70.2248C66.5446 70.6345 65.9064 71.0886 65.3064 71.583C64.6664 72.1104 64.063 72.6685 63.5394 73.3114C63.4492 73.4222 63.1789 73.6767 63.1789 73.8457C63.1789 73.9286 63.3282 73.7642 63.4107 73.7556C63.5213 73.7439 63.6195 73.6615 63.681 73.5753C64.5595 72.3455 65.1073 70.8837 65.7795 69.5393C65.8966 69.3051 66.0084 69.0374 66.2172 68.8666C66.2996 68.7992 66.2838 68.7345 66.2205 68.8119C66.11 68.9468 66.0686 69.1648 65.9919 69.3204C65.8278 69.6534 65.6259 69.9489 65.4384 70.2666C65.416 70.3046 65.1675 70.6846 65.2324 70.5434C65.5164 69.9253 65.8319 69.3443 66.2365 68.7926C67.1175 67.5913 68.1586 66.496 69.6901 66.3143C70.1132 66.2641 70.7683 66.1644 70.7683 66.7488C70.7683 67.3311 70.3791 67.9144 70.234 68.4836C70.2166 68.5516 70.1647 69.0012 70.0602 69.005C69.5879 69.0218 69.2525 68.4799 69.0496 68.136C68.4903 67.1882 68.185 66.1398 67.9295 65.0783C67.8336 64.6802 67.7542 63.9767 67.466 63.6525C67.2924 63.4572 66.5613 64.8498 66.5198 64.9174C65.5769 66.4523 64.5623 67.9448 63.4976 69.3976C63.1555 69.8644 62.8488 70.4432 62.4515 70.8653C62.0575 71.2839 63.0978 69.9138 63.3978 69.4234C63.7444 68.8568 63.9681 68.2523 64.2668 67.6661C64.4206 67.3642 64.2325 67.8094 64.1896 67.8849C63.4238 69.2312 62.6643 70.5561 62.0975 72.0014C61.9518 72.3731 61.7673 72.7601 61.7113 73.1601C61.6794 73.3877 61.7267 73.4079 61.869 73.2245C62.8438 71.9675 63.5473 70.428 64.27 69.0178C64.5535 68.4647 64.8222 67.9047 65.0972 67.3474C65.1351 67.2705 65.2263 67.0133 65.345 66.9869C65.4026 66.9741 65.357 67.107 65.3418 67.164C65.1786 67.7745 64.9269 68.3623 64.6916 68.947C64.1059 70.4028 63.5074 71.8526 63.0759 73.3629C63.0408 73.486 62.9112 73.8402 62.9858 73.7362C63.2045 73.4317 63.3541 73.0504 63.5072 72.7127C64.1949 71.1968 64.7674 69.6394 65.3225 68.0716C65.4384 67.7441 65.5594 67.4193 65.6604 67.0867C65.6762 67.0348 65.9029 66.4131 65.6765 66.8196C64.9084 68.1986 64.1808 69.6174 63.5426 71.0616C63.442 71.2893 63.374 71.5308 63.2723 71.7568C63.2081 71.8995 63.3328 71.4494 63.3785 71.2998C63.8901 69.6229 64.455 67.9597 64.8976 66.2628C64.956 66.0389 65.0094 65.8143 65.0779 65.5933C65.1272 65.4342 64.9532 65.9022 64.8912 66.0568C64.4098 67.2575 63.9166 68.4545 63.4042 69.6422C63.3635 69.7367 62.8618 70.8581 63.1146 70.2216C64.0132 67.9583 64.8392 65.6689 65.7023 63.3918C65.866 62.9598 66.3667 61.6698 66.2398 62.1141C66.0921 62.6308 65.8499 63.133 65.6379 63.6236C65.1933 64.6521 64.741 65.6797 64.2443 66.6844C63.9479 67.2839 63.6216 67.867 63.3334 68.4707C63.175 68.8027 63.0403 69.1635 62.841 69.4749C62.8274 69.4961 62.7869 69.548 62.783 69.5232C62.7751 69.4713 62.8118 69.3043 62.8152 69.2882C62.8956 68.911 63.0296 68.5527 63.1596 68.1907C63.5049 67.2294 63.7415 66.2573 63.9449 65.2586C63.9976 65.0001 64.3301 63.8919 64.0351 64.7436C63.3643 66.6801 62.4484 68.5342 61.6662 70.4276C61.5275 70.7633 61.388 71.0975 61.28 71.4446C61.2483 71.5464 61.1958 71.8136 61.2349 71.4704C61.4393 69.6789 62.1235 67.9574 62.6607 66.2467C63.1099 64.8163 63.5319 63.3756 64.0061 61.9531C64.26 61.1915 63.4861 63.4724 63.2079 64.2254C62.6482 65.7405 62.0689 67.255 61.5729 68.7926C61.3584 69.4576 61.7526 68.5911 61.8336 68.4256C62.1269 67.8262 62.3177 67.1864 62.6189 66.5911C62.8781 66.0787 62.7576 67.4052 62.7476 67.5244C62.6628 68.5422 62.4385 69.5451 62.4258 70.5692C62.4255 70.5927 62.3925 71.3235 62.5159 71.2226C62.6856 71.0837 62.7674 70.6833 62.8313 70.5016C63.012 69.9882 63.1741 69.4683 63.3302 68.947C63.7006 67.7097 64.1059 66.3696 64.1059 65.0623C64.1059 64.7943 63.7154 63.9631 63.3399 64.3252C62.9225 64.7277 62.5655 65.2938 62.2584 65.7832C62.0818 66.0646 61.7096 66.8035 61.2961 66.8035C61.1791 66.8035 61.1061 66.8952 61.0483 66.9902C60.6902 67.5784 60.4716 68.2659 60.2243 68.902C59.3752 71.0862 58.7325 73.2926 58.3447 75.6094C58.0888 77.1376 58.0808 78.6445 58.0808 80.1862" stroke="#FFE712" stroke-linecap="round" stroke-linejoin="round"/>
<path d="M58.1387 80.5338C58.6513 79.7232 59.2452 78.981 59.7029 78.1328C60.337 76.9577 60.8189 75.7051 61.2092 74.4314C61.315 74.0862 61.1804 74.6048 61.1384 74.6954C60.8306 75.3591 60.5005 76.0113 60.1986 76.678C60.0827 76.9339 59.9541 77.1833 59.8349 77.4376C59.7939 77.5249 59.7111 77.7911 59.7029 77.695C59.6306 76.845 59.7478 75.9354 59.8445 75.0945C59.9905 73.8259 60.2295 72.57 60.4303 71.3094C60.4613 71.1151 60.4903 70.9221 60.514 70.7269C60.5207 70.6713 60.5213 70.5452 60.5719 70.5692C60.6589 70.6104 60.7171 70.9937 60.7232 71.0198C60.8188 71.427 60.9017 71.8369 61.0032 72.2428C61.2455 73.212 61.534 74.1675 61.8336 75.1202C61.9723 75.5614 62.0383 76.0787 62.2391 76.4977C62.5186 77.0809 62.0654 75.2157 61.9494 74.5795C61.6703 73.0475 61.4918 71.522 61.3701 69.9705C61.3405 69.5925 61.3032 69.2153 61.2703 68.8376C61.2606 68.7253 61.3276 68.4633 61.2221 68.5029C61.1425 68.5327 61.2083 69.4296 61.2092 69.5392C61.2158 70.4052 61.3185 71.2674 61.4152 72.127C61.4608 72.5329 61.5014 72.9427 61.5825 73.3436C61.6639 73.7456 61.6611 73.4664 61.6469 73.3114C61.5589 72.3484 61.4102 71.4028 61.3701 70.434C61.3464 69.8599 61.3715 69.2673 61.3122 68.696C61.2833 68.4182 61.2671 69.2674 61.2671 69.3333C61.2671 71.0982 61.1492 72.843 60.9774 74.5988C60.9692 74.6833 60.9669 75.7513 60.9066 75.397C60.8342 74.9714 60.8616 74.5331 60.8616 74.1031C60.8616 72.8206 60.8388 71.5359 60.8745 70.2538C60.8915 69.6411 60.9707 69.0319 60.9774 68.4192C60.9802 68.1697 60.9798 68.1144 60.9774 68.4256C60.9667 69.8315 60.6585 71.2136 60.6298 72.6162C60.6237 72.9162 60.7964 72.0396 60.8873 71.7536C61.3497 70.299 61.7673 68.8361 62.1683 67.3635C62.405 66.4942 62.6722 65.6348 62.9215 64.7694C63.1027 64.1399 62.9885 64.9967 62.9665 65.1685C62.7427 66.9184 62.1705 68.658 61.737 70.3632C61.1849 72.535 60.5501 74.693 60.1342 76.8968C59.995 77.6344 59.8378 78.3966 59.8188 79.1498C59.8174 79.2051 59.8188 79.4724 59.8188 79.2528C59.8188 77.9117 59.7608 76.5715 59.7608 75.2296C59.7608 74.9507 59.7608 74.6718 59.7608 74.3928C59.7608 74.1567 59.8817 74.851 59.9733 75.0687C60.3871 76.0523 60.8339 77.1802 61.4989 78.0298C61.7322 78.3279 61.5254 77.4922 61.5182 77.4569C61.3043 76.415 61.0192 75.3751 60.7007 74.3606C60.6305 74.1371 60.5588 73.9129 60.4657 73.6976C60.4442 73.6478 60.4224 73.501 60.3981 73.5496C60.2684 73.8089 60.546 74.4459 60.6234 74.6696C60.8391 75.293 61.083 75.9066 61.2993 76.5299C61.3698 76.7332 61.4158 77.2024 61.589 77.3539C61.6529 77.4098 61.5891 77.183 61.5729 77.0996C61.5076 76.7631 61.4204 76.4312 61.3379 76.0986C61.1786 75.4561 61.0109 74.8154 60.8745 74.1675C60.8045 73.8351 60.7114 73.6066 60.9388 74.0967C61.3429 74.9675 61.6408 75.8616 61.8915 76.7874C61.9822 77.1222 62.7536 79.5 61.7113 79.0468C61.1295 78.7939 60.7007 77.9378 60.3981 77.4247C59.9064 76.5908 59.4964 75.7036 59.1236 74.8112C59.0366 74.6031 58.8339 73.9741 58.8339 74.1997C58.8339 74.6084 59.0663 75.0913 59.2072 75.4614C59.6638 76.6598 60.1971 77.8528 60.8873 78.9374C61.3573 79.6759 59.8869 77.4991 59.3392 76.8164C59.0501 76.456 58.7655 76.0689 58.438 75.7414C58.1603 75.4637 58.3277 76.0365 58.3576 76.1308C58.5879 76.8587 58.8899 77.5896 59.2459 78.2647C59.5507 78.8429 59.9597 79.3523 60.2983 79.9094C60.3485 79.992 60.5542 80.3697 60.5494 80.3664C60.1254 80.075 59.7897 79.5545 59.4679 79.1627C59.006 78.6001 58.6461 77.9845 58.2288 77.3925C58.2054 77.3593 57.7143 76.7755 57.9005 77.0288C58.2968 77.5678 58.7145 78.093 59.159 78.593C59.285 78.7348 59.7937 79.1321 59.822 79.3301C59.835 79.4213 59.6481 79.2627 59.5742 79.2078C59.3482 79.04 59.1501 78.8341 58.9401 78.6477C58.551 78.3024 58.1561 77.9334 57.7396 77.621C57.5669 77.4915 57.368 77.4155 57.5787 77.6854C57.9126 78.1133 58.2797 78.5248 58.6633 78.9084C59.0442 79.2893 59.4252 79.6703 59.8059 80.051C59.8599 80.105 60.1535 80.3883 60.1535 80.1733C60.1535 79.3318 59.8311 78.4407 59.7093 77.6114C59.5197 76.3195 59.4712 75.0301 59.4712 73.7266C59.4712 73.633 59.5396 71.3453 59.8735 71.5122C60.1957 71.6733 59.7824 72.676 59.6804 72.8801C59.5849 73.071 59.9179 72.223 59.9218 72.2139C60.3171 71.2779 60.5977 70.3138 60.9131 69.3494C61.0995 68.7795 61.6871 67.083 61.5471 67.6661C61.4408 68.1089 61.1696 68.5279 60.9839 68.9406C60.8226 69.2991 60.6981 69.6714 60.5494 70.0349C60.19 70.9133 61.1847 68.2448 61.56 67.3732C61.8605 66.6752 62.0994 65.9231 62.4773 65.2618C62.522 65.1835 62.7906 64.6708 62.7605 65.0462C62.6986 65.8205 62.3132 66.6001 62.0782 67.3313C61.7045 68.4939 61.419 69.6717 61.309 70.891C61.1219 72.9629 61.5294 74.8361 62.4869 76.6555C62.5297 76.7366 62.7666 77.0407 62.709 77.1415C62.6458 77.252 61.7053 77.2666 61.5793 77.2927C61.0469 77.4032 60.3366 77.6608 60.2855 78.3001C60.2369 78.9066 60.4791 79.359 60.8294 79.8354C60.9388 79.9842 61.0232 80.1415 61.1223 80.2956C61.2332 80.4682 60.9244 79.9631 60.9131 79.948C60.6831 79.6414 60.449 79.3334 60.2018 79.0404C60.1308 78.9563 60.0192 78.7071 59.97 78.8054C59.9394 78.8668 60.4846 79.368 60.5397 79.4298C60.9101 79.8454 61.3264 80.2113 61.7435 80.5789C61.8974 80.7145 62.0468 80.855 62.2005 80.9908C62.2518 81.0362 62.355 81.1944 62.355 81.126C62.355 80.9765 62.0657 80.6694 61.9881 80.5563C61.8007 80.2832 61.6571 79.9994 61.5053 79.7066C61.3995 79.5026 61.5524 79.5544 61.7081 79.6133C61.9607 79.7089 62.1731 79.8571 62.3936 80.0092C62.4305 80.0346 62.709 80.2622 62.709 80.1701C62.709 79.8336 62.1494 78.9477 62.3164 79.2399C62.4244 79.4289 62.7487 79.5143 62.8313 79.7002C62.9732 80.0195 63.2308 80.2919 63.4107 80.5917" stroke="#FFE712" stroke-linecap="round" stroke-linejoin="round"/>
<path d="M82.9344 64.8337C82.7294 65.1096 82.4152 65.3869 82.2746 65.6995C82.0741 66.145 82.5472 65.5226 82.6029 65.4485C83.0379 64.8684 83.484 64.302 83.9643 63.7587C84.161 63.5363 84.3776 63.3037 83.9836 63.6557C82.9632 64.5676 81.9715 65.495 81.0708 66.5267C80.4337 67.2565 79.6963 68.0483 79.233 68.9116C78.9487 69.4416 78.5882 69.8841 78.2289 70.3632C77.696 71.0737 77.6498 72.0645 77.038 72.6999C76.9084 72.8344 76.5334 73.2418 76.626 73.0797C76.8934 72.6117 77.4592 72.2787 77.8362 71.9017" stroke="#FFE712" stroke-linecap="round" stroke-linejoin="round"/>
<path d="M61.6727 92.5261C61.5259 92.8801 61.2418 93.3043 60.8584 93.4241C60.3278 93.5899 59.9246 93.9941 59.5066 94.3478C59.2633 94.5537 59.3165 94.8266 59.2523 95.1074C59.2024 95.3259 59.1315 95.4237 59.0077 95.6095C58.9035 95.7657 58.7689 96.1327 58.6022 96.221C58.5113 96.2691 58.5442 95.8769 58.5442 95.8444C58.5442 95.2621 58.5008 94.7255 58.7148 94.1772C58.8515 93.827 59.0447 93.5529 59.2105 93.2213C59.3104 93.0214 59.3727 92.7971 59.5001 92.613C59.7303 92.2806 59.8478 91.9091 60.0054 91.5412C60.3212 90.8046 60.5656 89.9865 60.765 89.211C60.886 88.7406 61.0933 88.2086 61.0933 87.7176" stroke="#FFE712" stroke-linecap="round" stroke-linejoin="round"/>
<path d="M62.5417 79.0275C62.5417 79.4526 62.4554 79.9731 62.6125 80.3729C62.7715 80.7777 63.0156 81.1565 63.2626 81.5122C63.3833 81.6861 63.6141 81.8675 63.7003 82.0401" stroke="#FFE712" stroke-linecap="round" stroke-linejoin="round"/>
<path d="M80.0956 68.5994C79.8602 69.1534 79.2068 69.3242 78.8468 69.7871C78.4726 70.2683 78.3585 70.9077 77.9006 71.3449C77.6143 71.6181 77.4337 71.9896 77.1732 72.2879C76.9672 72.5237 76.7348 72.7426 76.5616 73.0024" stroke="#FFE712" stroke-linecap="round" stroke-linejoin="round"/>
<path d="M57.0959 80.4179C57.0959 79.6315 57.0102 78.8001 57.2246 78.0362C57.6311 76.5881 58.2366 75.2003 58.7309 73.7813C58.8501 73.4391 58.9623 73.1016 59.0656 72.7546C59.0975 72.6476 59.28 72.4439 59.1686 72.4359C58.9283 72.4188 58.2502 73.5042 58.1773 73.6011C57.109 75.0205 56.1326 76.508 55.1808 78.0073C54.7785 78.6411 54.3946 79.2852 54.019 79.9352C53.9527 80.0498 53.9341 80.086 53.9932 79.9738C54.2241 79.5351 54.4525 79.0954 54.6723 78.651C55.856 76.2578 56.8374 73.7674 58.0389 71.3835C58.2367 70.991 58.4231 70.5809 58.6472 70.2023C58.6628 70.176 58.6955 70.1025 58.7052 70.1315C58.7618 70.3013 58.5562 70.4573 58.4702 70.6143C57.7012 72.0181 56.9443 73.4215 56.2719 74.8756C55.882 75.7188 55.3628 76.682 55.2098 77.6178C55.1332 78.0862 55.7009 77.211 55.7023 77.2091C56.3472 76.2626 56.9005 75.2513 57.4564 74.2512C58.0811 73.1272 58.6566 71.9822 59.2266 70.8299C59.4795 70.3185 59.8966 69.7271 60.0248 69.1595C60.1233 68.7231 59.2881 69.6802 58.9884 70.0124C57.9675 71.1438 57.0774 72.3943 56.1754 73.6204C55.6214 74.3734 55.0799 75.1363 54.5532 75.9088C54.1304 76.5289 54.6694 75.6839 54.7624 75.5322C56.0591 73.4177 57.1552 71.1677 58.2095 68.9245C58.2717 68.7921 58.5179 68.1913 58.512 68.2003C57.9619 69.0586 57.4532 69.9438 56.8995 70.8009C56.0331 72.1423 55.1392 73.4663 54.3086 74.8305C54.1331 75.1189 53.7345 75.6101 53.6746 75.9699C53.6624 76.043 53.7596 75.8485 53.8001 75.7865C54.0468 75.4078 54.2959 75.0305 54.5404 74.6503C55.207 73.6132 55.8462 72.5515 56.4393 71.4704C56.674 71.0425 56.8685 70.5952 57.083 70.1572C57.1106 70.1008 57.2092 69.969 57.1474 69.9802C57.0171 70.0039 56.6118 70.5528 56.5809 70.5885C55.1319 72.2614 53.8152 74.0491 52.5449 75.8605C52.4205 76.0379 52.0931 76.5994 52.194 76.4076C52.518 75.7921 52.9149 75.212 53.2658 74.6117C54.0635 73.247 54.8895 71.8899 55.6572 70.508C55.8433 70.1731 55.1491 71.0819 54.9008 71.3738C54.1071 72.3072 53.3542 73.2735 52.5674 74.2126C52.2297 74.6157 51.8783 75.0053 51.5278 75.397C51.3413 75.6055 51.7965 74.9059 51.9462 74.6696C53.1451 72.7772 54.3198 70.8639 55.4255 68.9149C55.4462 68.8784 55.9811 67.9265 55.5896 68.3484C54.6359 69.3761 53.81 70.5579 52.9504 71.6635C52.6278 72.0784 52.3057 72.4968 52.0395 72.9509C51.8921 73.2025 52.1175 72.7728 52.1329 72.7514C52.9765 71.5741 53.8242 70.4206 54.5661 69.1723C55.0833 68.3021 54.3197 69.5089 54.1799 69.7066C53.0202 71.347 51.7769 72.9418 50.8583 74.7372C50.6686 75.1081 51.007 74.5845 51.0321 74.5473C51.454 73.9225 51.896 73.3119 52.3131 72.6838C52.6914 72.1141 53.0693 71.5373 53.4074 70.9425C53.4765 70.8211 53.8976 70.1782 53.504 70.5113C52.2886 71.5396 51.2844 72.7796 50.1309 73.8714C50.0677 73.9313 49.6727 74.32 49.7029 74.2705C50.0126 73.7618 50.4044 73.3054 50.7714 72.8383C51.0159 72.5271 51.243 72.1974 51.5214 71.9145C51.6629 71.7708 51.7762 71.6779 51.6372 71.9499C50.9097 73.3747 49.8964 74.6438 49.1332 76.0536C49.0996 76.1157 48.4089 77.696 48.5024 77.679C48.6945 77.644 48.9581 77.2181 49.0688 77.09C49.4458 76.6538 49.7509 76.2097 50.028 75.706C50.042 75.6804 50.3032 75.2463 50.1664 75.3294C49.6622 75.6355 49.26 76.2247 48.895 76.6716C48.4342 77.2359 48.0044 77.8191 47.6205 78.4385C47.5319 78.5814 47.2685 79.0105 47.3437 78.8602C47.6105 78.3266 48.0167 77.8177 48.3801 77.3475C48.4779 77.2208 48.5929 77.0719 48.6569 76.9226C48.8049 76.5772 48.0843 77.4126 47.8329 77.6918C47.5167 78.0432 47.199 78.394 46.9381 78.7894C46.864 78.9018 46.8 79.0627 46.7032 79.1595C46.4875 79.3752 47.0525 78.6592 47.2278 78.4096C47.7603 77.6513 48.3077 76.901 48.8274 76.1341C49.349 75.3643 50.7281 72.9392 50.2951 73.762C50.0579 74.2127 49.7105 74.6159 49.41 75.0237C48.7248 75.9533 48.1306 76.9249 47.569 77.9332C47.5623 77.9453 47.0812 79.0029 47.0862 79.0018C47.2759 78.958 47.498 78.5961 47.6012 78.4643C47.9338 78.0393 48.2797 77.6278 48.6279 77.2155C48.7436 77.0785 49.0319 76.7741 48.7277 77.1543C48.3243 77.6585 47.926 78.1671 47.5175 78.6671C47.2644 78.9768 46.5191 79.9143 46.7965 79.6262C47.135 79.2747 47.4369 78.8589 47.6977 78.4482C47.7436 78.3759 48.1588 77.8204 47.9037 77.9783C47.1627 78.437 46.5752 79.2747 45.9533 79.8837C45.586 80.2433 46.0484 79.7467 46.1496 79.6294C46.6604 79.0373 47.1253 78.4073 47.643 77.8206C47.7897 77.6544 48.1191 77.2741 47.9262 77.7755C47.6473 78.5007 47.251 79.1819 47.0508 79.9384C47.0402 79.9784 46.9694 80.1744 47.0411 80.0446C47.2298 79.7032 47.4917 79.3948 47.7106 79.0726C47.9371 78.7393 48.6585 77.7698 48.438 78.107C48.2957 78.3247 47.9001 78.9861 48.084 78.8022C48.5766 78.3096 48.9479 77.677 49.4036 77.1479C50.0598 76.3858 49.413 77.4553 49.2491 77.7498C49.039 78.1272 48.8305 78.5059 48.6504 78.8988C48.5995 79.0098 48.4702 79.2041 48.4702 79.3333C48.4702 79.5557 48.7 78.9523 48.8178 78.7636C49.2922 78.0037 49.8324 77.2924 50.3498 76.5621C50.7185 76.0417 51.0395 75.4905 51.4055 74.9689C51.5066 74.8249 51.65 74.5469 51.7982 74.4443C52.0902 74.2422 51.477 75.0785 51.2961 75.3841C50.9254 76.0104 50.5138 76.6137 50.1567 77.2477C49.9999 77.5259 49.64 78.4043 49.8316 78.1489C50.5818 77.1486 51.3125 76.1406 52.017 75.1073C52.0884 75.0027 52.3217 74.7034 52.2552 74.8112C51.9624 75.2862 51.6516 75.7484 51.3218 76.1984C50.9099 76.7606 50.5164 77.3314 50.1245 77.9075C49.9762 78.1255 49.8347 78.4577 49.6353 78.6349C49.5041 78.7515 49.7575 78.3048 49.8381 78.1489C50.0711 77.6979 50.3834 77.2827 50.6781 76.8711C50.9487 76.4932 51.2442 76.1363 51.5214 75.7639C51.5256 75.7582 51.7449 75.4321 51.7531 75.4485C51.8157 75.5738 51.5274 75.9961 51.4763 76.0858C51.1034 76.7405 50.6983 77.377 50.3112 78.0233C50.156 78.2824 49.6804 78.8475 49.6804 79.1756C49.6804 79.4272 49.3297 79.7759 49.1944 79.9738C49.0279 80.217 49.4337 79.5332 49.4776 79.4588C49.695 79.0901 49.9489 78.7171 50.2597 78.4192C50.532 78.1582 50.6517 78.068 50.2726 78.3903C50.202 78.4503 49.6269 78.9334 49.9314 78.5898C50.6602 77.7673 51.401 76.9716 52.0878 76.1115C52.3626 75.7674 53.1151 74.6944 52.9311 75.0945C52.7092 75.5768 52.3151 76.0218 52.0202 76.4591C51.457 77.2947 50.9102 78.1344 50.3916 78.9986C50.1393 79.4191 49.8959 79.8645 49.6256 80.2699C49.3565 80.6736 50.1925 79.4817 50.4979 79.1048C51.1932 78.2465 51.8735 77.3764 52.5835 76.5299C52.7804 76.2952 52.9824 76.0682 53.2014 75.854C53.2117 75.844 53.438 75.6314 53.4203 75.7768C53.3664 76.2187 52.8653 76.7413 52.635 77.0867C52.3067 77.5791 51.9742 78.0689 51.6501 78.5641C51.4289 78.902 51.1914 79.302 51.0836 79.697C51.0584 79.7896 51.2911 79.342 51.3604 79.2464C52.1031 78.2214 52.8672 77.2084 53.6553 76.2177C53.7317 76.1216 54.4244 75.105 54.624 75.1621C54.6734 75.1762 53.7512 76.6309 53.7228 76.6748C53.1754 77.5233 52.6657 78.3839 52.1715 79.2625C52.0778 79.4291 52.0231 79.6097 51.9398 79.7807C51.9024 79.8573 51.7847 80.0068 51.9205 79.845C52.6463 78.9802 53.4457 78.1762 54.2121 77.3475C54.3353 77.2142 55.1236 76.1537 55.3804 76.2564C55.5432 76.3215 55.184 76.5474 55.0746 76.6844C54.7844 77.0479 54.4998 77.4151 54.2056 77.7755C54.0455 77.9716 53.5774 78.402 53.5619 78.6799C53.5608 78.7007 53.5474 78.7999 53.5716 78.7475C53.7047 78.4591 53.9543 78.231 54.1477 77.9847C54.8239 77.1236 55.357 76.1625 55.9951 75.2747C56.0506 75.1975 56.5083 74.4487 56.6195 74.4765C56.7881 74.5186 56.4883 74.8004 56.3942 74.9464C56.0742 75.4433 55.7503 75.9323 55.4512 76.443C54.7691 77.6079 54.0951 78.7897 53.4493 79.9738C53.3515 80.1531 53.3261 79.9492 53.3334 79.8579C53.357 79.5626 53.4671 79.1182 53.6199 78.8666C53.8115 78.5509 53.2409 79.1081 53.2014 79.1563C53.0348 79.3597 52.8858 79.5706 52.7573 79.8C52.7315 79.8461 52.6564 80.0199 52.7766 79.903C54.057 78.6572 55.0948 77.1587 56.4715 76.0053C56.9874 75.5731 56.7305 76.3271 56.6131 76.575C56.1914 77.4652 55.6666 78.3357 55.3514 79.2721C55.3235 79.3551 55.0619 80.0858 55.2677 79.8257C55.7376 79.2323 56.1974 78.5916 56.6228 77.9654C57.0232 77.3759 57.3584 76.7316 57.7975 76.1727C57.8568 76.0973 58.3512 75.3654 58.0389 75.6545C57.4042 76.2422 56.8793 77.0441 56.4457 77.7916C56.3709 77.9207 56.262 78.1611 56.2977 77.856C56.3512 77.3981 56.5363 76.945 56.6968 76.5171C56.8473 76.1156 57.024 75.6988 57.2246 75.3198C57.2788 75.2174 57.2542 75.6856 57.2439 75.7317C57.1284 76.2514 56.9969 76.7734 56.8641 77.2895C56.7848 77.598 56.765 77.9281 56.6646 78.2293C56.6075 78.4005 56.8106 77.8976 56.9092 77.7466C57.1887 77.3186 57.4137 76.8741 57.6366 76.4141C57.8903 75.8904 58.1238 75.3612 58.3672 74.8338C58.6502 74.2206 57.8307 76.0734 57.5722 76.6973C57.3444 77.2472 57.2125 77.8286 56.98 78.3774C56.8457 78.6946 56.7825 79.1015 56.5487 79.3687C56.4435 79.4889 56.36 79.1812 56.2623 79.1595C56.2209 79.1503 56.2269 80.0104 56.2269 80.0703" stroke="#FFE712" stroke-linecap="round" stroke-linejoin="round"/>
<path d="M66.0177 65.5289C65.4428 64.2087 64.9639 62.8884 64.55 61.509C64.3972 60.9995 64.4535 61.9622 64.4535 62.0594C64.4535 63.4578 64.3467 64.8 63.9964 66.1598C63.8846 66.5941 63.7454 67.0205 63.6295 67.4536C63.5863 67.6153 63.5656 67.9581 63.4461 68.0909C63.2616 68.2959 63.4657 67.5373 63.5201 67.267C63.7104 66.3222 63.9882 65.394 64.225 64.4604C64.6395 62.8261 65.0264 61.1837 65.4641 59.5553C65.4708 59.5303 65.7337 58.529 65.905 58.7539C66.2234 59.1718 66.139 60.122 66.1657 60.5981C66.2147 61.4696 66.1915 62.3455 66.1915 63.218C66.1915 63.8595 65.994 62.7265 65.9726 62.6194C65.823 61.868 65.7198 61.1069 65.58 60.3535C65.3166 58.9345 65.6893 63.2397 65.831 64.676C65.8658 65.029 66.0185 66.063 66.0724 65.7124C66.1011 65.5257 66.0252 65.3005 65.9758 65.1266C65.8348 64.63 65.6899 64.1409 65.5767 63.6364C65.3517 62.6332 65.1217 61.64 64.8365 60.6528C64.7988 60.5225 64.6562 60.172 64.6981 60.5402C64.7802 61.2632 65.0597 61.9822 65.2066 62.6966C65.2651 62.9811 65.3711 63.8252 65.4255 63.5399C65.4853 63.2256 65.4383 62.858 65.4383 62.5421C65.4383 61.9092 65.4383 61.2762 65.4383 60.6432C65.4383 59.8228 65.4716 58.9944 65.4351 58.1746C65.4139 57.6959 65.145 58.5541 65.1294 58.5962C64.3584 60.6737 63.482 62.6975 62.5964 64.7275C62.3157 65.3708 62.0456 66.0171 61.7467 66.6522C61.6362 66.8869 61.5127 67.1186 61.4441 67.37C61.4377 67.3936 61.4043 67.4584 61.4087 67.4343C61.4863 67.0172 61.695 66.6004 61.84 66.2048C62.4283 64.6006 62.958 62.9712 63.5716 61.377C63.784 60.8252 63.9585 60.1345 64.2797 59.6326C64.6992 58.977 63.6081 61.0369 63.269 61.7375C62.5366 63.2512 61.8524 64.7982 61.251 66.369C61.1001 66.7632 60.6852 67.9593 60.839 67.5663C60.9762 67.2158 61.1541 66.8842 61.3186 66.546C61.9315 65.2861 62.5105 64.0095 63.0856 62.732C63.6227 61.539 64.1479 60.3321 64.6434 59.1208C64.6973 58.9889 64.8945 58.6236 64.7882 58.7185C64.5622 58.9203 64.4568 59.2259 64.299 59.4845C63.9022 60.135 63.3672 61.0298 62.9794 61.6796C61.8927 63.5003 60.8385 65.336 59.7866 67.1768C59.6896 67.3465 59.5175 67.8714 59.484 67.6789C59.4425 67.4401 59.7558 66.9837 59.8445 66.7971C60.6536 65.0955 61.4568 63.3911 62.2584 61.686C62.5027 61.1664 62.7354 60.5394 63.0502 60.0381C64.4012 57.8865 60.7684 64.5789 59.6932 66.8807C59.3994 67.5099 58.5672 69.4162 58.7953 68.7604C59.2522 67.4466 59.9613 66.1771 60.5333 64.911C61.1262 63.5985 61.7027 62.2735 62.2456 60.9393C62.2932 60.8222 62.7717 59.7155 62.4194 60.2698C61.5243 61.6779 60.6916 63.1246 59.793 64.5312C59.2309 65.4111 58.7426 66.3482 58.1644 67.2155C57.898 67.615 58.5287 66.3265 58.7277 65.8894C59.256 64.7287 59.758 63.5343 60.3337 62.3973C60.4894 62.0899 60.9338 61.1584 60.8101 61.48C60.6835 61.8091 60.4218 62.1341 60.234 62.4263C59.7432 63.1896 59.2241 63.933 58.6987 64.6728C58.0786 65.546 57.5122 66.5502 56.8062 67.3571C56.5161 67.6887 57.1553 66.5466 57.3662 66.1598C58.3 64.4479 59.3455 62.7921 60.3788 61.1388C60.5803 60.8165 60.7976 60.5034 60.9968 60.1797C61.0236 60.1361 61.0485 60.011 61.0804 60.051C61.1778 60.1727 60.0753 61.5663 60.0022 61.6699C59.0578 63.0086 58.133 64.3709 57.1442 65.677C56.9762 65.8989 56.5736 66.6154 56.6453 66.3465C56.72 66.0662 56.9542 65.7716 57.1023 65.5354C57.535 64.8453 57.9732 64.1583 58.4123 63.4723C58.8098 62.8512 59.1873 62.1809 59.6643 61.6152C60.0337 61.177 59.1311 62.6303 58.8468 63.1279C58.1293 64.3834 57.3469 65.604 56.6453 66.8679C56.4445 67.2296 56.0587 67.7703 55.9951 68.1939C55.9716 68.351 55.9923 67.9786 56.0048 67.9364C56.2344 67.1616 56.5632 66.433 56.8835 65.6931C56.964 65.507 57.0478 65.3193 57.112 65.1266C57.1738 64.9413 56.9271 65.4709 56.832 65.6416C56.2402 66.7026 55.6648 67.7722 55.0811 68.8376C54.9675 69.0449 54.654 69.6781 54.7335 69.4556C54.9214 68.9294 55.2591 68.4327 55.5317 67.9493C55.8657 67.3569 56.1621 66.7447 56.5037 66.1566C56.651 65.9028 56.6294 66.0543 56.5262 66.2531C55.9632 67.3374 54.1793 70.5334 54.6755 69.4169C55.1308 68.3927 55.8093 67.4657 56.4586 66.5589C57.3893 65.2592 58.3701 64.0082 59.439 62.8189C59.7935 62.4245 60.2071 61.8705 60.7039 61.6313C61.2071 61.389 60.3962 62.7117 60.1471 63.2116C59.1763 65.1592 58.1241 67.0783 57.3083 69.0983C57.2788 69.1715 57.2199 69.3852 57.2793 69.3333C57.5959 69.0563 57.8612 68.5703 58.0968 68.2422C58.9883 67.0008 59.8354 65.7268 60.7457 64.499C61.0742 64.0559 61.7947 63.2302 61.5375 64.3896C61.2409 65.7265 60.902 67.0514 60.6556 68.3999C60.6105 68.6467 60.6317 69.0254 60.5268 69.256C60.4468 69.4322 60.5517 68.8697 60.5655 68.6767C60.6144 67.9926 60.6542 67.4415 60.6942 66.752C60.6945 66.7475 60.9122 65.2988 60.6588 65.2425C60.5522 65.2188 60.4425 66.8356 60.4303 67.0159C60.4189 67.184 60.4762 68.8993 60.3627 68.9245C60.1267 68.977 59.7491 67.4973 59.6997 67.3185C59.6774 67.2378 59.381 66.2441 59.381 66.5074C59.381 66.9028 59.4635 67.2951 59.5484 67.6789C59.6499 68.1379 59.7074 68.6742 59.8767 69.1144C60.0897 69.6682 59.6086 67.956 59.4132 67.3957C59.3262 67.1461 58.9783 66.2118 59.1043 67.0481C59.2012 67.6919 59.4315 68.2615 59.6353 68.873C59.6872 69.0285 59.8902 69.4458 59.7576 69.3494C59.5389 69.1903 59.3768 68.7612 59.2523 68.5286C59.0264 68.1065 58.8021 67.6409 58.5185 67.2541C58.3791 67.0641 58.4658 67.8598 58.4702 67.8849C58.5681 68.4496 58.8273 68.9818 59.0141 69.5199C59.0474 69.6157 59.3252 70.2597 59.1751 70.0413C58.7507 69.4241 58.4007 68.7741 58.0421 68.1167C57.8245 67.7176 57.6161 67.2217 57.2826 66.9C57.1685 66.79 57.3535 67.5269 57.3695 67.5695C57.6821 68.4033 58.1954 69.1469 58.512 69.9802C58.6209 70.2668 59.0581 71.0102 58.6697 70.2087C58.2698 69.3832 57.9023 68.5322 57.4435 67.7369C57.3571 67.5872 57.2635 67.4024 57.1474 67.2734C57.1212 67.2443 57.2725 68.2272 57.3019 68.342C57.4655 68.982 57.8093 69.509 58.055 70.1057C58.3491 70.82 57.2523 68.7812 56.774 68.1746C56.5411 67.8792 56.7119 68.271 56.774 68.4063C56.9874 68.8714 57.2327 69.3218 57.4885 69.7646C57.536 69.8466 57.8463 70.4572 57.6302 70.0767C57.3036 69.502 56.9587 68.8748 56.5198 68.3774C56.4425 68.2898 56.1296 67.9619 56.1142 68.2615C56.0928 68.6798 56.1457 69.0781 56.214 69.4878C56.2454 69.6762 56.4319 70.2191 56.362 70.0413C56.2415 69.7345 56.0612 69.3963 55.8793 69.1208C55.6088 68.7113 55.7766 69.281 55.8278 69.4363C55.8552 69.5196 56.2465 70.5456 56.0177 70.0703C55.949 69.9277 55.772 69.5431 55.6186 69.4749C55.4969 69.4208 55.5278 70.194 55.5349 70.2827C55.5707 70.7308 56.0619 69.961 56.0692 69.9512C57.8438 67.5647 59.4618 65.0548 61.383 62.7803C62.3149 61.6771 63.2602 60.5241 64.3119 59.5296C64.4156 59.4314 64.451 59.326 64.5114 59.1948C64.7077 58.7685 64.9883 58.3768 65.2324 57.9782C65.2414 57.9635 65.4905 57.6326 65.4705 57.5727C65.4181 57.4155 65.2506 57.8206 65.1422 57.946C64.895 58.2324 64.6456 58.5165 64.4052 58.8086C64.0229 59.2731 63.6843 59.8551 63.2433 60.2634C63.1458 60.3537 63.3523 60.0203 63.4203 59.9061C63.5067 59.7612 63.5557 59.5713 63.7003 59.4845C63.7966 59.4267 63.6049 59.6884 63.5458 59.7838C63.4093 60.0043 63.1675 60.36 63.0341 60.5563C62.2648 61.6881 61.4375 62.7792 60.6395 63.8907C60.6334 63.8992 60.1623 64.5734 60.2983 64.2126C60.4678 63.7632 60.7467 63.3553 60.9903 62.9445C61.4869 62.1071 61.9421 61.2226 62.5288 60.4436C62.8825 59.9739 63.2052 59.4644 63.533 58.976C63.6489 58.8032 63.8741 58.571 63.8741 58.3451" stroke="#FFE712" stroke-linecap="round" stroke-linejoin="round"/>
<path d="M64.859 64.6599C64.859 64.0055 65.1306 63.5161 65.2388 62.8769C65.5024 61.319 65.9525 59.7683 66.3782 58.2486C66.7357 56.9724 67.0993 55.6517 67.5562 54.4056C67.6027 54.2788 67.8186 53.9654 67.6978 54.0259C67.5479 54.1008 67.304 54.7123 67.2375 54.8305C66.2925 56.5089 65.3995 58.1894 64.55 59.9158C64.5361 59.944 64.3413 60.3079 64.3473 60.2634C64.4318 59.6294 64.8497 58.933 65.0908 58.3516C65.5986 57.1267 66.1189 55.7944 66.8996 54.7082C67.0765 54.4621 67.1171 54.5955 67.0669 54.8562C66.924 55.5995 66.5305 56.2998 66.2044 56.974C65.8863 57.6316 65.5548 58.2821 65.2195 58.9309C65.1925 58.9831 64.9024 59.6563 64.9234 59.5038C64.9847 59.0596 65.1707 58.6346 65.3225 58.2164C65.5892 57.4814 65.8281 56.737 66.0949 56.002C66.1715 55.7912 66.2371 55.5754 66.3299 55.3712C66.4588 55.0876 65.9689 55.8794 65.7988 56.1404C64.7932 57.6844 63.7553 59.2214 62.8442 60.8234C62.6333 61.1943 62.4351 61.5696 62.2552 61.9564C62.1938 62.0883 62.0782 62.501 62.0782 62.3555C62.0782 62.0751 62.2898 61.7487 62.4065 61.5122C62.9004 60.5114 63.4473 59.5468 64.0093 58.5833C64.6567 57.4736 65.2482 56.2859 66.0982 55.3101C66.2364 55.1514 66.7027 54.7752 66.4973 54.8208C66.3114 54.8621 66.1222 55.1144 66.0048 55.2425C65.5367 55.7532 65.1233 56.3132 64.6723 56.8389C63.9923 57.6316 63.4266 58.462 62.8088 59.2946C62.6096 59.5632 62.6158 59.6407 62.9086 59.1884C63.4555 58.3434 63.945 57.4541 64.5372 56.6393C64.8969 56.1443 65.3271 55.7039 65.6669 55.1942C65.8772 54.8787 65.2034 55.7945 64.9684 56.0922C64.3218 56.9116 63.6639 57.717 63.1178 58.6091C62.8589 59.0319 62.615 59.4832 62.3228 59.8836C62.2116 60.0359 62.1278 60.2046 62.0203 60.36C61.9866 60.4086 61.7681 60.6932 61.8336 60.5563C62.06 60.0829 62.4098 59.642 62.6833 59.1948C63.4108 58.0051 64.147 56.8215 64.9105 55.6544C65.4504 54.8293 66.0487 54.0421 66.5938 53.2244C67.2999 52.1653 65.0761 55.2776 64.4599 56.3915C63.989 57.2428 63.6095 58.1676 63.0309 58.9567C62.6291 59.5046 62.2509 60.1274 61.9173 60.7204C61.3118 61.7969 62.8715 58.4291 63.533 57.386C63.6006 57.2793 64.1124 56.5669 63.7583 56.9998C63.0406 57.877 62.6427 59.0011 61.9591 59.9126C61.7317 60.2158 61.5186 60.5007 61.3508 60.8363C61.2987 60.9405 61.263 61.1236 61.1802 61.2064C61.1336 61.253 61.2061 61.0758 61.2349 61.0165C61.5629 60.3423 61.8747 59.6612 62.2327 59.0017C62.5904 58.3427 62.9725 57.7493 63.4622 57.1897C63.7324 56.8808 63.2079 57.6961 63.1661 57.7658C62.9411 58.1408 62.5425 58.5026 62.3679 58.8955C62.3473 58.9418 62.3047 58.9906 62.3099 58.8987C62.3271 58.5976 62.5886 58.241 62.7155 57.9782C63.2063 56.9615 63.8892 55.9582 64.6723 55.1395C65.1158 54.6759 65.5665 54.2195 66.0209 53.7652C66.5349 53.2512 66.9557 52.6566 67.4693 52.143C67.936 51.6763 68.271 51.1012 68.7116 50.6142C68.8479 50.4635 68.9598 50.2727 69.1011 50.1314C69.4554 49.7771 68.5759 50.985 68.3093 51.4092C67.8359 52.1624 67.2512 52.965 66.9575 53.8134C66.9077 53.9573 66.8123 54.0867 66.7708 54.2318C66.7595 54.2717 66.6791 54.6431 66.7515 54.573C67.9433 53.4196 69.0519 51.8569 69.262 50.1765" stroke="#FFE712" stroke-linecap="round" stroke-linejoin="round"/>
</svg>
