<?xml version="1.0" encoding="utf-8"?>
<!-- Generator: Adobe Illustrator 24.0.0, SVG Export Plug-In . SVG Version: 6.00 Build 0)  -->
<svg version="1.1" id="Layer_1" xmlns="http://www.w3.org/2000/svg" xmlns:xlink="http://www.w3.org/1999/xlink" x="0px" y="0px"
	 viewBox="0 0 125 125" enable-background="new 0 0 125 125" xml:space="preserve">
<g>
	<g>
		<g>
			<g>
				<path fill="#FF0037" d="M88.252,97.768l-7.797-4.307c-0.893-0.496-2.086-0.496-2.973,0l-7.011,3.906l-7.069-3.906
					c-0.902-0.502-2.068-0.502-2.976,0l-7.007,3.906l-7.069-3.906c-0.893-0.496-2.086-0.496-2.973,0l-7.011,3.906l-7.069-3.906
					c-0.902-0.502-2.068-0.502-2.976,0l-7.007,3.906l-7.069-3.906c-0.902-0.502-2.068-0.502-2.976,0l-7.794,4.307
					c-0.755,0.419-1.031,1.37-0.612,2.129c0.416,0.759,1.367,1.025,2.129,0.612l7.735-4.307l7.069,3.906
					c0.905,0.502,2.068,0.502,2.973,0l7.011-3.906l7.069,3.906c0.905,0.502,2.068,0.502,2.973,0l7.011-3.906l7.069,3.906
					c0.893,0.496,2.086,0.496,2.973,0l7.011-3.906l7.069,3.906c0.905,0.502,2.068,0.502,2.973,0l7.014-3.906l7.8,4.307
					c0.239,0.135,0.499,0.196,0.755,0.196c0.551,0,1.086-0.291,1.37-0.811C89.286,99.138,89.01,98.184,88.252,97.768z"/>
			</g>
		</g>
	</g>
	<g>
		<g>
			<g>
				<g>
					<path fill="#FF0037" d="M72.468,60.618c-0.332,0-0.667-0.11-0.945-0.336L43.92,37.854c-0.351-0.285-0.554-0.712-0.554-1.164
						V6.5c0-0.829,0.671-1.5,1.5-1.5s1.5,0.671,1.5,1.5v29.477l27.05,21.977c0.643,0.522,0.74,1.467,0.218,2.11
						C73.337,60.428,72.904,60.618,72.468,60.618z"/>
				</g>
				<g>
					<path fill="#FF0037" d="M16.401,61.354c-0.435,0-0.865-0.188-1.162-0.55c-0.524-0.641-0.43-1.586,0.211-2.111l28.465-23.29
						c0.64-0.525,1.586-0.431,2.11,0.211c0.524,0.641,0.431,1.586-0.211,2.111L17.35,61.015
						C17.072,61.243,16.735,61.354,16.401,61.354z"/>
				</g>
			</g>
			<g>
				<path fill="#FF0037" d="M52.629,95.915H37.103c-0.437,0-0.852-0.19-1.137-0.521c-0.285-0.331-0.411-0.771-0.346-1.202
					l7.763-51.479c0.111-0.734,0.741-1.276,1.483-1.276c0.742,0,1.373,0.542,1.483,1.276l7.764,51.479
					c0.065,0.432-0.062,0.871-0.347,1.202S53.065,95.915,52.629,95.915z M38.846,92.915h12.04l-6.02-39.92L38.846,92.915z"/>
			</g>
		</g>
	</g>
	<g>
		<g>
			<path fill="#FF0037" d="M62.551,119.748c-14.12,0-18.958-24.023-19.157-25.047c-0.158-0.813,0.372-1.6,1.185-1.758
				c0.809-0.163,1.601,0.372,1.759,1.185c0.044,0.227,4.555,22.62,16.213,22.62c0.828,0,1.5,0.672,1.5,1.5
				S63.379,119.748,62.551,119.748z"/>
		</g>
	</g>
	<g>
		<g>
			<path fill="#FF0037" d="M27.181,119.748c-0.829,0-1.5-0.672-1.5-1.5s0.671-1.5,1.5-1.5c11.658,0,16.168-22.394,16.212-22.62
				c0.159-0.813,0.944-1.349,1.759-1.185c0.813,0.158,1.344,0.945,1.186,1.758C46.139,95.725,41.301,119.748,27.181,119.748z"/>
		</g>
	</g>
</g>
</svg>
