<?xml version="1.0" encoding="utf-8"?>
<!-- Generator: Adobe Illustrator 21.1.0, SVG Export Plug-In . SVG Version: 6.00 Build 0)  -->
<svg version="1.1" id="Layer_1" xmlns="http://www.w3.org/2000/svg" xmlns:xlink="http://www.w3.org/1999/xlink" x="0px" y="0px"
	 viewBox="0 0 125 125" enable-background="new 0 0 125 125" xml:space="preserve">
<g>
	<path fill="#FF1243" d="M71.028,71.741c-0.26,0.317-0.637,0.479-1.017,0.479c-0.295,0-0.593-0.098-0.838-0.301L38.165,46.285
		L7.158,71.918C6.913,72.122,6.614,72.22,6.32,72.22c-0.38,0-0.757-0.162-1.017-0.479c-0.465-0.561-0.385-1.39,0.176-1.856
		l31.369-25.932V12.613c0-0.729,0.59-1.318,1.318-1.318s1.318,0.59,1.318,1.318v31.34l31.367,25.932
		C71.413,70.35,71.492,71.179,71.028,71.741z M39.857,55.657l7.806,55.523c0.053,0.378-0.061,0.759-0.31,1.048
		c-0.251,0.288-0.614,0.453-0.995,0.453H29.973c-0.381,0-0.744-0.165-0.995-0.453c-0.25-0.288-0.363-0.669-0.31-1.048l7.795-55.462
		C36.893,53.433,39.449,53.49,39.857,55.657z M44.842,110.045l-6.677-47.504l-6.675,47.504H44.842z"/>
</g>
<g>
	<g>
		<path fill="#FF1243" d="M104.78,52.822c-0.272,0-0.531-0.117-0.712-0.321c-0.181-0.204-0.265-0.476-0.23-0.746l2.733-22.052
			c0.059-0.475,0.462-0.833,0.94-0.833c0.001,0,0.001,0,0.002,0c0.478,0,0.882,0.355,0.942,0.83l2.822,22.048
			c0.034,0.271-0.049,0.543-0.229,0.748c-0.18,0.205-0.439,0.322-0.712,0.323L104.78,52.822
			C104.78,52.822,104.78,52.822,104.78,52.822z M107.529,37.42l-1.674,13.5l3.401-0.002L107.529,37.42z"/>
	</g>
	<g>
		<g>
			<path fill="#FF1243" d="M118.866,36.167c-0.231,0-0.463-0.084-0.646-0.253l-11.281-10.462c-0.194-0.18-0.305-0.433-0.305-0.697
				V12.218c0-0.525,0.426-0.95,0.95-0.95s0.95,0.425,0.95,0.95V24.34l10.977,10.18c0.385,0.357,0.408,0.958,0.051,1.343
				C119.376,36.065,119.121,36.167,118.866,36.167z"/>
		</g>
		<g>
			<path fill="#FF1243" d="M96.25,36.167c-0.256,0-0.511-0.103-0.698-0.306c-0.355-0.386-0.332-0.987,0.054-1.343l11.335-10.462
				c0.386-0.355,0.986-0.332,1.343,0.054c0.355,0.386,0.332,0.987-0.054,1.343L96.895,35.916
				C96.712,36.084,96.48,36.167,96.25,36.167z"/>
		</g>
	</g>
</g>
<g>
	<g>
		<path fill="#FF1243" d="M75.212,76.541c-0.332,0-0.648-0.145-0.867-0.395c-0.219-0.251-0.317-0.584-0.271-0.914l4.876-35.131
			c0.078-0.567,0.563-0.991,1.136-0.992c0.001,0,0.002,0,0.003,0c0.572,0,1.058,0.42,1.139,0.987l5.033,35.125
			c0.047,0.33-0.051,0.664-0.27,0.916c-0.218,0.252-0.535,0.396-0.868,0.397L75.212,76.541
			C75.212,76.541,75.212,76.541,75.212,76.541z M80.106,48.494L76.532,74.24l7.263-0.005L80.106,48.494z"/>
	</g>
	<g>
		<g>
			<path fill="#FF1243" d="M100.332,50.008c-0.258,0-0.519-0.086-0.732-0.264L79.481,33.076c-0.264-0.219-0.417-0.543-0.417-0.886
				V12.218c0-0.635,0.516-1.15,1.15-1.15s1.15,0.515,1.15,1.15V31.65l19.701,16.323c0.489,0.405,0.558,1.13,0.152,1.62
				C100.991,49.867,100.663,50.008,100.332,50.008z"/>
		</g>
		<g>
			<path fill="#FF1243" d="M60,50.008c-0.332,0-0.66-0.143-0.888-0.418c-0.404-0.49-0.334-1.215,0.156-1.619l20.215-16.668
				c0.491-0.405,1.216-0.334,1.619,0.156s0.334,1.215-0.156,1.619L60.731,49.746C60.518,49.922,60.258,50.008,60,50.008z"/>
		</g>
	</g>
</g>
</svg>
