<?xml version="1.0" encoding="utf-8"?>
<!-- Generator: Adobe Illustrator 21.1.0, SVG Export Plug-In . SVG Version: 6.00 Build 0)  -->
<svg version="1.1" id="Layer_1" xmlns="http://www.w3.org/2000/svg" xmlns:xlink="http://www.w3.org/1999/xlink" x="0px" y="0px"
	 viewBox="0 0 125 125" enable-background="new 0 0 125 125" xml:space="preserve">
<path fill="#FF1243" d="M118.395,90.593c0,0.816-0.66,1.476-1.476,1.476H7.476C6.66,92.069,6,91.409,6,90.593
	s0.66-1.476,1.476-1.476h109.444C117.735,89.118,118.395,89.778,118.395,90.593z M118.934,27.533l-4.097,28.272
	c-0.107,0.735-0.736,1.265-1.458,1.265c-0.071,0-0.141-0.006-0.213-0.014c-0.807-0.118-1.366-0.867-1.248-1.672l3.73-25.728
	L84.787,68.976c-1.44,1.833-3.601,2.882-5.931,2.882c-2.329,0-4.489-1.049-5.927-2.882L44.392,32.629
	c-1.752-2.231-5.464-2.231-7.216,0l-28.54,36.35c-0.501,0.64-1.432,0.752-2.071,0.251c-0.641-0.504-0.754-1.432-0.249-2.072
	l28.54-36.35c1.438-1.833,3.6-2.885,5.928-2.885c2.329,0,4.49,1.052,5.928,2.885l28.537,36.347c0.876,1.115,2.19,1.752,3.607,1.752
	c0,0,0,0,0.001,0c1.416,0,2.732-0.637,3.608-1.752l31-39.499L89.182,37.695c-0.749,0.32-1.614-0.043-1.927-0.798
	c-0.311-0.755,0.046-1.617,0.8-1.928l26.678-11.029c1.179-0.403,2.34-0.167,3.198,0.594
	C118.788,25.291,119.163,26.412,118.934,27.533z"/>
</svg>
