<svg width="125" height="125" viewBox="0 0 125 125" fill="none" xmlns="http://www.w3.org/2000/svg">
<g id="icon_windmill 1">
<g id="Group">
<g id="Group_2">
<g id="Group_3">
<g id="Group_4">
<g id="Group_5">
<g id="turbine">
<path id="Vector" d="M100.864 92.0597C100.392 92.0597 99.9158 91.9191 99.5205 91.6304L60.2677 62.9755C59.7685 62.6114 59.4798 62.0658 59.4798 61.4883V22.9165C59.4798 21.8573 60.434 21 61.6129 21C62.7918 21 63.746 21.8573 63.746 22.9165V60.5774L102.212 88.656C103.127 89.323 103.265 90.5303 102.522 91.3518C102.1 91.8169 101.484 92.0597 100.864 92.0597Z" fill="#FF0037"/>
<path id="Vector_2" d="M21.1343 93C20.5157 93 19.9042 92.7598 19.4818 92.2973C18.7367 91.4783 18.8704 90.271 19.7819 89.6002L60.2605 59.844C61.1706 59.1733 62.5159 59.2934 63.2611 60.1136C64.0062 60.9326 63.874 62.1399 62.961 62.8107L22.4838 92.5669C22.0885 92.8582 21.6092 93 21.1343 93Z" fill="#FF0037"/>
</g>
</g>
</g>
</g>
</g>
</g>
</g>
</svg>
