<svg width="125" height="125" viewBox="0 0 125 125" fill="none" xmlns="http://www.w3.org/2000/svg">
<path d="M115 49.18H105.29C104.462 49.18 103.79 48.509 103.79 47.68C103.79 46.851 104.462 46.18 105.29 46.18H110.519L64.36 11.378L18.201 46.18H22.26C23.089 46.18 23.76 46.851 23.76 47.68C23.76 48.509 23.089 49.18 22.26 49.18H13.72C13.075 49.18 12.502 48.768 12.298 48.156C12.093 47.545 12.302 46.87 12.818 46.482L63.458 8.30201C63.993 7.89901 64.729 7.89901 65.265 8.30201L115.905 46.482C116.42 46.87 116.629 47.545 116.425 48.156C116.218 48.768 115.645 49.18 115 49.18Z" fill="#FF1243"/>
<path d="M105.29 116.69H22.26C21.431 116.69 20.76 116.018 20.76 115.19V47.68C20.76 46.851 21.431 46.18 22.26 46.18C23.089 46.18 23.76 46.851 23.76 47.68V113.69H103.79V47.68C103.79 46.851 104.462 46.18 105.29 46.18C106.118 46.18 106.79 46.851 106.79 47.68V115.19C106.79 116.019 106.118 116.69 105.29 116.69Z" fill="#FF1243"/>
</svg>
