<svg width="125" height="125" viewBox="0 0 125 125" fill="none" xmlns="http://www.w3.org/2000/svg">
<path d="M39.857 55.657L47.663 111.18C47.716 111.558 47.602 111.939 47.353 112.228C47.102 112.516 46.739 112.681 46.358 112.681H29.973C29.592 112.681 29.229 112.516 28.978 112.228C28.728 111.94 28.615 111.559 28.668 111.18L36.463 55.718C36.893 53.433 39.449 53.49 39.857 55.657ZM44.842 110.045L38.165 62.541L31.49 110.045H44.842Z" fill="#FF1243"/>
<path d="M104.78 52.822C104.508 52.822 104.249 52.705 104.068 52.501C103.887 52.297 103.803 52.025 103.838 51.755L106.571 29.703C106.63 29.228 107.033 28.87 107.511 28.87C107.512 28.87 107.512 28.87 107.513 28.87C107.991 28.87 108.395 29.225 108.455 29.7L111.277 51.748C111.311 52.019 111.228 52.291 111.048 52.496C110.868 52.701 110.609 52.818 110.336 52.819L104.78 52.822ZM107.529 37.42L105.855 50.92L109.256 50.918L107.529 37.42Z" fill="#FF1243"/>
<path d="M75.212 76.541C74.88 76.541 74.564 76.396 74.345 76.146C74.126 75.895 74.028 75.562 74.074 75.232L78.95 40.101C79.028 39.534 79.513 39.11 80.086 39.109C80.087 39.109 80.088 39.109 80.089 39.109C80.661 39.109 81.147 39.529 81.228 40.096L86.261 75.221C86.308 75.551 86.21 75.885 85.991 76.137C85.773 76.389 85.456 76.533 85.123 76.534L75.212 76.541ZM80.106 48.494L76.532 74.24L83.795 74.235L80.106 48.494Z" fill="#FF1243"/>
</svg>
